<?xml version="1.0" encoding="utf-8"?>
<!-- Generator: Adobe Illustrator 21.1.0, SVG Export Plug-In . SVG Version: 6.00 Build 0)  -->
<svg version="1.1" id="Layer_1" xmlns="http://www.w3.org/2000/svg" xmlns:xlink="http://www.w3.org/1999/xlink" x="0px" y="0px"
	 viewBox="0 0 460.5 99.7" style="enable-background:new 0 0 460.5 99.7;" xml:space="preserve">
<style type="text/css">
	.st0{fill:#52C689;}
	.st1{fill:#FFFFFF;}
</style>
<g>
	<path class="st0" d="M77.6,0h-57C9.3,0,0,9.3,0,20.7v57c0,11.4,9.3,20.7,20.7,20.7h57c11.4,0,20.7-9.3,20.7-20.7v-57
		C98.3,9.3,89.1,0,77.6,0z M73,27v0.3v5.5v8.3v22.4c0,1.4-0.1,2.7-0.4,4.1c-1.9,11.2-11.7,19.8-23.5,19.8
		c-13.2,0-23.9-10.7-23.9-23.9c0-13.2,10.7-23.9,23.9-23.9c2.4,0,4.8,0.4,7,1v16c-1.9-1.4-4.4-2.3-7.2-2.3c-5.9,0-10.8,4-10.8,9
		c0,5,4.8,9,10.8,9c5.9,0,10.8-4,10.8-9V42.1v0v-1v-8.3v-5.5V27v-6.8l6.6,4.4L73,20V27z M73,15.6l-6.7,4.5l-6.6-4.4V11l6.7,4.4
		L73,11V15.6z"/>
	<g>
		<path class="st1" d="M120.2,14.3h27.2c21.9,0,37.1,15,37.1,34.7v0.2c0,19.6-15.1,34.9-37.1,34.9h-27.2V14.3z M135.5,28.1v42h11.9
			c12.6,0,21-8.5,21-20.8v-0.2c0-12.4-8.5-21-21-21H135.5z"/>
		<path class="st1" d="M189.2,30.4h15.1v10.8c3.1-7.4,8.1-12.2,17-11.8v15.8h-0.8c-10.1,0-16.2,6.1-16.2,18.8v19.7h-15.1V30.4z"/>
		<path class="st1" d="M222.9,57.4v-0.2c0-15.3,12.4-27.8,29-27.8c16.5,0,28.8,12.3,28.8,27.6v0.2c0,15.3-12.4,27.8-29,27.8
			C235.2,85,222.9,72.7,222.9,57.4z M265.8,57.4v-0.2c0-7.9-5.7-14.7-14-14.7c-8.7,0-13.8,6.7-13.8,14.5v0.2c0,2,0.4,3.9,1,5.6
			c2,5.3,6.8,9.1,13,9.1C260.6,71.9,265.8,65.2,265.8,57.4z"/>
		<path class="st1" d="M285.8,30.4H301V38c3.7-5,8.8-8.7,16.6-8.7c12.5,0,24.3,9.8,24.3,27.6v0.2c0,17.8-11.7,27.6-24.3,27.6
			c-8.1,0-13.1-3.7-16.6-8v22.9h-15.1V30.4z M326.8,57.2V57c0-8.9-6-14.7-13.1-14.7c-7.1,0-13,5.9-13,14.7v0.2
			c0,8.9,5.9,14.7,13,14.7C320.8,71.9,326.8,66.1,326.8,57.2z"/>
		<path class="st1" d="M347.5,11h15.9v13.5h-15.9V11z M347.9,30.4h15.1v53.4h-15.1V30.4z"/>
		<path class="st1" d="M374.1,43.3h-6.3V30.9h6.3v-3.4c0-5.9,1.5-10.2,4.3-13c2.8-2.8,6.9-4.2,12.3-4.2c4.8,0,8,0.6,10.8,1.5v12.6
			c-2.2-0.8-4.3-1.3-6.9-1.3c-3.5,0-5.5,1.8-5.5,5.8V31h12.3v12.4h-12.1v40.4h-15.1V43.3z"/>
		<path class="st1" d="M444.8,30.4h15.7L440,85.1c-4.1,10.9-8.5,14.9-17.5,14.9c-5.5,0-9.6-1.4-13.5-3.7l5.1-11
			c2,1.2,4.5,2.1,6.5,2.1c2.6,0,4-0.8,5.3-3.5l-20.9-53.6h16l12.2,36.4L444.8,30.4z"/>
	</g>
</g>
</svg>
