<?xml version="1.0" encoding="utf-8"?>
<!-- Generator: Adobe Illustrator 22.1.0, SVG Export Plug-In . SVG Version: 6.00 Build 0)  -->
<svg version="1.1" xmlns="http://www.w3.org/2000/svg" xmlns:xlink="http://www.w3.org/1999/xlink" x="0px" y="0px"
	 viewBox="0 0 64 64" style="enable-background:new 0 0 64 64;" xml:space="preserve">
<style type="text/css">
	.st0{fill:#52C689;}
</style>
<g id="Layer_1">
</g>
<g id="Isolation_Mode">
	<path class="st0" d="M50.5,0H13.4C6,0,0,6,0,13.5v37.1C0,58,6,64,13.5,64h37.1C58,64,64,58,64,50.5V13.5C63.9,6,58,0,50.5,0z
		 M47.5,17.6v0.2v3.6v5.4v14.6c0,0.9-0.1,1.8-0.3,2.7c-1.2,7.3-7.6,12.9-15.3,12.9c-8.6,0-15.5-7-15.5-15.5s7-15.5,15.5-15.5
		c1.6,0,3.1,0.3,4.6,0.7v10.4c-1.2-0.9-2.9-1.5-4.7-1.5c-3.8,0-7,2.6-7,5.9c0,3.3,3.1,5.9,7,5.9c3.8,0,7-2.6,7-5.9V27.4l0,0v-0.7
		v-5.4v-3.6v-0.2v-4.4l4.3,2.9l4.4-3V17.6z M47.5,10.1l-4.4,2.9l-4.3-2.9V7.2l4.4,2.9l4.3-2.9V10.1z"/>
</g>
</svg>
