<svg xmlns="http://www.w3.org/2000/svg" viewBox="0 0 67 88"><defs><style>.a{fill:none;stroke:#fff;stroke-linecap:round;stroke-linejoin:round;stroke-width:2px;}.b{fill:none;stroke:#e9a718;stroke-linecap:round;stroke-linejoin:round;stroke-width:2px;}</style></defs><g transform="translate(-170 -151.389)"><g transform="translate(171 152.389)"><path class="a" d="M40.562,2H12.125A8.373,8.373,0,0,0,4,10.6V79.4A8.373,8.373,0,0,0,12.125,88h48.75A8.373,8.373,0,0,0,69,79.4V32.1Z" transform="translate(-4 -2)"/><path class="a" d="M13,2V32.1H41.437" transform="translate(23.562 -2)"/></g><g transform="translate(191.49 187.993)"><path class="b" d="M9.667,17.222H5.222a2.222,2.222,0,0,0,0,4.444H7.444a2.222,2.222,0,0,0,2.222-2.222ZM23,15H18.556a2.222,2.222,0,0,0,0,4.444h2.222A2.222,2.222,0,0,0,23,17.222Z" transform="translate(-3 -1.667)"/><path class="b" d="M9,18.556V5.222L22.333,3V16.333" transform="translate(-2.333 -3)"/></g></g></svg>